# xmcd
#
# Track frame offsets: 
#        150
#        14830
#        29100
#        43930
#        60701
#        74836
#        88646
#        103816
#        121534
#        136594
#        150689
#        165142
#
# Disc length: 2448 seconds
#
# Revision: 0
# Processed by: cddbd v1.5.2PL0 Copyright (c) Steve Scherf et al.
# Submitted via: ExactAudioCopy v0.99pb4
#
DISCID=a2098e0c
DTITLE=Neisha - Nor je ta svet
DYEAR=2007
DGENRE=Blues
TTITLE0=Zaradi upanja
TTITLE1=Vrtiljak
TTITLE2=Ogenj pod nogami
TTITLE3=Cvetni prah ljubezni
TTITLE4=Pod enim deznikom
TTITLE5=Stokrat bolje mi je zdaj
TTITLE6=Obèutek
TTITLE7=Vedno za vedno
TTITLE8=Nor je ta svet
TTITLE9=Midnight
TTITLE10=Blame me
TTITLE11=You and me
EXTD=
EXTT0=
EXTT1=
EXTT2=
EXTT3=
EXTT4=
EXTT5=
EXTT6=
EXTT7=
EXTT8=
EXTT9=
EXTT10=
EXTT11=
PLAYORDER=
